<?xml version="1.0" encoding="UTF-8"?>
<!DOCTYPE svg PUBLIC "-//W3C//DTD SVG 1.1//EN" "http://www.w3.org/Graphics/SVG/1.1/DTD/svg11.dtd">
<!-- Creator: CorelDRAW -->
<svg xmlns="http://www.w3.org/2000/svg" xml:space="preserve" width="155.873mm" height="55.478mm" style="shape-rendering:geometricPrecision; text-rendering:geometricPrecision; image-rendering:optimizeQuality; fill-rule:evenodd; clip-rule:evenodd"
viewBox="0 0 155.873 55.478"
 xmlns:xlink="http://www.w3.org/1999/xlink">
 <defs>
  <style type="text/css">
   <![CDATA[
    .fil0 {fill:none}
    .fil2 {fill:#1F1A17}
    .fil1 {fill:#DA251D}
   ]]>
  </style>
 </defs>
 <g id="Layer_x0020_1">
  <metadata id="CorelCorpID_0Corel-Layer"/>
  <rect class="fil0" width="155.873" height="55.478"/>
  <path class="fil1" d="M20.3766 44.8791c-11.4235,-4.5273 -18.3465,-10.4156 -18.3465,-16.8395 0,-13.3307 29.8167,-24.3597 67.8197,-25.6916 -34.7839,2.0642 -62.1373,14.5191 -61.5602,28.3722 0.2253,5.4063 4.6755,10.2717 12.087,14.1589zm76.1018 -9.6883l1.0119 -4.3428 0.4859 0c2.0876,1.8637 6.3491,2.774 8.9011,1.733 0.6039,-0.2463 0.8631,-0.6669 0.8867,-1.177 0.0539,-1.165 -2.6385,-1.475 -3.4518,-1.6908 -2.4416,-0.648 -5.6348,-1.4582 -5.6348,-4.5906 0,-1.8586 0.8317,-3.3214 2.4946,-4.3931 3.0699,-1.9786 8.9557,-1.874 12.2916,-0.2698l-0.8284 3.9427 -0.4557 0c-0.5484,-0.4709 -1.8678,-1.4007 -3.6991,-1.6725 -1.8312,-0.2719 -4.5703,-0.0332 -4.6085,1.5561 -0.028,1.1662 2.4316,1.5031 3.2309,1.7032 2.4941,0.6242 5.8773,1.3307 5.8557,4.5782 -0.0122,1.8383 -0.8529,3.2732 -2.5246,4.353 -3.3699,2.1764 -9.9802,1.9795 -13.9555,0.2704zm-5.1183 -6.4267c0.5918,-2.33 0.9285,-6.1647 -2.4144,-6.1061 -2.4763,0.0433 -3.8523,2.2201 -4.398,4.373 -0.5918,2.3352 -0.899,5.9457 2.4594,5.9457 2.3338,0 3.8378,-2.1839 4.353,-4.2126zm5.0692 1.1872c-1.6743,4.3466 -5.5447,6.622 -10.1134,6.622 -6.7913,0 -8.9492,-4.7772 -6.8826,-10.8196 1.4555,-4.2557 5.6193,-6.6794 10.1586,-6.6923 6.8764,-0.0194 8.9748,4.8455 6.8374,10.8899zm-23.8544 6.4266c-1.8283,0 -3.1346,-0.3022 -3.9171,-0.9016 -1.5165,-1.1616 -1.2775,-3.0158 -0.9117,-4.6134l1.7882 -7.8091 -2.1688 0 0.8065 -3.4765 2.1737 0 0.7496 -3.2456 5.6323 -1.463 -1.0871 4.7086 4.2213 0 -0.8065 3.4765 -4.2213 0c-0.5484,2.3933 -1.123,4.784 -1.643,7.1829 -0.1488,0.6862 -0.3093,1.8226 0.3607,2.2893 0.899,0.6261 2.7211,0.2932 3.6616,-0.1503l0.4409 0 -0.8215 3.5364c-1.4134,0.3416 -2.8042,0.4658 -4.2578,0.4658zm-5.9008 -16.8006l-3.817 16.4801 -5.3097 0 0.4258 -1.8182c-1.4051,0.9012 -2.8608,1.8452 -4.5332,2.1488 -1.5999,0.2906 -3.5319,0.155 -4.8238,-0.9167 -1.4954,-1.2404 -1.4012,-3.436 -1.0018,-5.1643l2.4794 -10.7297 5.3398 0 -1.8933 8.1749c-0.236,1.0191 -0.8701,3.3309 0.03,4.1576 0.741,0.6808 2.3859,0.4444 3.2659,0.1553 0.5613,-0.1844 1.1721,-0.4558 1.8283,-0.8065l2.6999 -11.6813 5.3097 0zm-27.4902 8.0999l-0.8816 -7.8494 -4.5082 7.8494 5.3898 0zm6.602 8.3802l-5.6802 0 -0.496 -4.4631 -8.0445 0 -2.5548 4.4631 -5.8807 0 13.1038 -21.8498 6.517 0 3.0354 21.8498z"/>
  <path class="fil2" d="M89.5396 2.5441c35.97,1.9684 63.6065,12.6677 63.6065,25.5014 0,11.3952 -21.781,21.1053 -51.8358,24.5192 23.7219,-4.5737 39.9532,-13.668 39.9532,-24.1029 0,-12.0814 -21.7641,-22.3686 -51.7239,-25.9177zm-0.9761 -0.0509c28.7879,3.6822 49.4459,13.4061 49.4459,24.7715 0,10.8643 -19.2041,19.6106 -40.2942,23.3217 -20.1634,3.5481 -41.9563,2.9206 -54.3869,0.4691 2.5356,0.086 5.1065,0.1301 7.7072,0.1301 42.3814,0 76.9504,-11.6665 76.9504,-25.9709 0,-9.772 -16.1407,-18.313 -39.8822,-22.7438 0.1532,0.0074 0.3067,0.0145 0.4598,0.0223z"/>
 </g>
</svg>
